<svg xmlns="http://www.w3.org/2000/svg" width="3000" height="2000"><path d="M1499,942L1247,1167L1618,1212Z" fill="#fbfbfb" stroke="#fbfbfb" stroke-width="1.51"/><path d="M1247,1167L1179,1408L1618,1212Z" fill="#f5f5f5" stroke="#f5f5f5" stroke-width="1.51"/><path d="M1618,1212L1793,824L1499,942Z" fill="#fcfcfc" stroke="#fcfcfc" stroke-width="1.51"/><path d="M1618,1212L1916,1257L1793,824Z" fill="#f7f7f7" stroke="#f7f7f7" stroke-width="1.51"/><path d="M1769,1578L1916,1257L1618,1212Z" fill="#f0f0f0" stroke="#f0f0f0" stroke-width="1.51"/><path d="M1499,942L1125,749L1247,1167Z" fill="#f9f9f9" stroke="#f9f9f9" stroke-width="1.51"/><path d="M1247,1167L934,1257L1179,1408Z" fill="#f0f0f0" stroke="#f0f0f0" stroke-width="1.51"/><path d="M1597,495L1125,749L1499,942Z" fill="#f5f5f5" stroke="#f5f5f5" stroke-width="1.51"/><path d="M1179,1408L1581,1636L1618,1212Z" fill="#f2f2f2" stroke="#f2f2f2" stroke-width="1.51"/><path d="M1793,824L1597,495L1499,942Z" fill="#f5f5f5" stroke="#f5f5f5" stroke-width="1.51"/><path d="M1916,1257L1849,808L1793,824Z" fill="#f7f7f7" stroke="#f7f7f7" stroke-width="1.51"/><path d="M1125,749L934,1257L1247,1167Z" fill="#f5f5f5" stroke="#f5f5f5" stroke-width="1.51"/><path d="M775,1484L1073,1759L1221,1576Z" fill="#e5e5e5" stroke="#e5e5e5" stroke-width="1.51"/><path d="M1221,1576L1581,1636L1179,1408Z" fill="#ececec" stroke="#ececec" stroke-width="1.51"/><path d="M1581,1636L1769,1578L1618,1212Z" fill="#efefef" stroke="#efefef" stroke-width="1.51"/><path d="M1221,1576L1294,1667L1581,1636Z" fill="#ebebeb" stroke="#ebebeb" stroke-width="1.51"/><path d="M1073,1759L1294,1667L1221,1576Z" fill="#e6e6e6" stroke="#e6e6e6" stroke-width="1.51"/><path d="M1849,808L1880,669L1793,824Z" fill="#f2f2f2" stroke="#f2f2f2" stroke-width="1.51"/><path d="M2295,972L1880,669L1849,808Z" fill="#f0f0f0" stroke="#f0f0f0" stroke-width="1.51"/><path d="M1880,669L1597,495L1793,824Z" fill="#f0f0f0" stroke="#f0f0f0" stroke-width="1.51"/><path d="M775,1484L1221,1576L1179,1408Z" fill="#e9e9e9" stroke="#e9e9e9" stroke-width="1.51"/><path d="M721,946L736,1164L934,1257Z" fill="#ededed" stroke="#ededed" stroke-width="1.51"/><path d="M1769,1578L1968,1610L1916,1257Z" fill="#eaeaea" stroke="#eaeaea" stroke-width="1.51"/><path d="M1916,1257L2295,972L1849,808Z" fill="#f4f4f4" stroke="#f4f4f4" stroke-width="1.51"/><path d="M1711,2004L1968,1610L1769,1578Z" fill="#e5e5e5" stroke="#e5e5e5" stroke-width="1.51"/><path d="M1711,2004L1769,1578L1581,1636Z" fill="#e7e7e7" stroke="#e7e7e7" stroke-width="1.51"/><path d="M775,1484L1179,1408L934,1257Z" fill="#eaeaea" stroke="#eaeaea" stroke-width="1.51"/><path d="M1294,1667L1330,1925L1581,1636Z" fill="#e8e8e8" stroke="#e8e8e8" stroke-width="1.51"/><path d="M1597,495L1225,430L1125,749Z" fill="#efefef" stroke="#efefef" stroke-width="1.51"/><path d="M1125,749L721,946L934,1257Z" fill="#f3f3f3" stroke="#f3f3f3" stroke-width="1.51"/><path d="M1968,1610L2050,1545L1916,1257Z" fill="#e8e8e8" stroke="#e8e8e8" stroke-width="1.51"/><path d="M902,602L721,946L1125,749Z" fill="#ededed" stroke="#ededed" stroke-width="1.51"/><path d="M1225,430L902,602L1125,749Z" fill="#ececec" stroke="#ececec" stroke-width="1.51"/><path d="M736,1164L775,1484L934,1257Z" fill="#e9e9e9" stroke="#e9e9e9" stroke-width="1.51"/><path d="M2050,1545L2178,1301L1916,1257Z" fill="#eaeaea" stroke="#eaeaea" stroke-width="1.51"/><path d="M1073,1759L1330,1925L1294,1667Z" fill="#e4e4e4" stroke="#e4e4e4" stroke-width="1.51"/><path d="M2178,1301L2248,1211L1916,1257Z" fill="#ececec" stroke="#ececec" stroke-width="1.51"/><path d="M2678,1407L2248,1211L2178,1301Z" fill="#e5e5e5" stroke="#e5e5e5" stroke-width="1.51"/><path d="M1597,495L1240,227L1225,430Z" fill="#ebebeb" stroke="#ebebeb" stroke-width="1.51"/><path d="M1880,669L1671,316L1597,495Z" fill="#ececec" stroke="#ececec" stroke-width="1.51"/><path d="M1831,260L1671,316L1880,669Z" fill="#e9e9e9" stroke="#e9e9e9" stroke-width="1.51"/><path d="M2248,1211L2295,972L1916,1257Z" fill="#eeeeee" stroke="#eeeeee" stroke-width="1.51"/><path d="M1330,1925L1711,2004L1581,1636Z" fill="#e8e8e8" stroke="#e8e8e8" stroke-width="1.51"/><path d="M1968,1610L2263,1711L2050,1545Z" fill="#e2e2e2" stroke="#e2e2e2" stroke-width="1.51"/><path d="M1225,430L1086,138L902,602Z" fill="#e6e6e6" stroke="#e6e6e6" stroke-width="1.51"/><path d="M1671,316L1240,227L1597,495Z" fill="#ededed" stroke="#ededed" stroke-width="1.51"/><path d="M1671,316L1344,66L1240,227Z" fill="#e8e8e8" stroke="#e8e8e8" stroke-width="1.51"/><path d="M2239,537L1831,260L1880,669Z" fill="#e7e7e7" stroke="#e7e7e7" stroke-width="1.51"/><path d="M902,602L660,563L721,946Z" fill="#e8e8e8" stroke="#e8e8e8" stroke-width="1.51"/><path d="M721,946L469,1059L736,1164Z" fill="#ececec" stroke="#ececec" stroke-width="1.51"/><path d="M736,1164L360,1454L775,1484Z" fill="#e4e4e4" stroke="#e4e4e4" stroke-width="1.51"/><path d="M646,334L660,563L902,602Z" fill="#e2e2e2" stroke="#e2e2e2" stroke-width="1.51"/><path d="M660,563L525,802L721,946Z" fill="#e7e7e7" stroke="#e7e7e7" stroke-width="1.51"/><path d="M525,802L469,1059L721,946Z" fill="#ebebeb" stroke="#ebebeb" stroke-width="1.51"/><path d="M1073,1759L1054,2050L1330,1925Z" fill="#e1e1e1" stroke="#e1e1e1" stroke-width="1.51"/><path d="M1330,1925L1308,2316L1711,2004Z" fill="#e5e5e5" stroke="#e5e5e5" stroke-width="1.51"/><path d="M775,1484L800,1884L1073,1759Z" fill="#dfdfdf" stroke="#dfdfdf" stroke-width="1.51"/><path d="M474,1894L800,1884L775,1484Z" fill="#dadada" stroke="#dadada" stroke-width="1.51"/><path d="M2295,972L2239,537L1880,669Z" fill="#ebebeb" stroke="#ebebeb" stroke-width="1.51"/><path d="M800,1884L1054,2050L1073,1759Z" fill="#dedede" stroke="#dedede" stroke-width="1.51"/><path d="M2050,1545L2263,1711L2178,1301Z" fill="#e3e3e3" stroke="#e3e3e3" stroke-width="1.51"/><path d="M2248,1211L2447,961L2295,972Z" fill="#ededed" stroke="#ededed" stroke-width="1.51"/><path d="M2193,1903L2263,1711L1968,1610Z" fill="#dedede" stroke="#dedede" stroke-width="1.51"/><path d="M2295,972L2447,961L2239,537Z" fill="#eaeaea" stroke="#eaeaea" stroke-width="1.51"/><path d="M2527,1019L2447,961L2248,1211Z" fill="#ebebeb" stroke="#ebebeb" stroke-width="1.51"/><path d="M660,563L539,615L525,802Z" fill="#e3e3e3" stroke="#e3e3e3" stroke-width="1.51"/><path d="M0,950L172,1164L469,1059Z" fill="#e7e7e7" stroke="#e7e7e7" stroke-width="1.51"/><path d="M415,364L539,615L660,563Z" fill="#dedede" stroke="#dedede" stroke-width="1.51"/><path d="M1900,2425L1939,2043L1711,2004Z" fill="#dedede" stroke="#dedede" stroke-width="1.51"/><path d="M1711,2004L1939,2043L1968,1610Z" fill="#e1e1e1" stroke="#e1e1e1" stroke-width="1.51"/><path d="M1240,227L1086,138L1225,430Z" fill="#e5e5e5" stroke="#e5e5e5" stroke-width="1.51"/><path d="M1344,66L1086,138L1240,227Z" fill="#e3e3e3" stroke="#e3e3e3" stroke-width="1.51"/><path d="M1610,3L1344,66L1671,316Z" fill="#e8e8e8" stroke="#e8e8e8" stroke-width="1.51"/><path d="M1939,2043L2193,1903L1968,1610Z" fill="#dedede" stroke="#dedede" stroke-width="1.51"/><path d="M800,1884L872,2049L1054,2050Z" fill="#dcdcdc" stroke="#dcdcdc" stroke-width="1.51"/><path d="M2508,390L2377,324L2239,537Z" fill="#dedede" stroke="#dedede" stroke-width="1.51"/><path d="M2678,1407L2527,1019L2248,1211Z" fill="#e6e6e6" stroke="#e6e6e6" stroke-width="1.51"/><path d="M2678,1407L2178,1301L2263,1711Z" fill="#e1e1e1" stroke="#e1e1e1" stroke-width="1.51"/><path d="M1086,138L646,334L902,602Z" fill="#e1e1e1" stroke="#e1e1e1" stroke-width="1.51"/><path d="M469,1059L360,1454L736,1164Z" fill="#e6e6e6" stroke="#e6e6e6" stroke-width="1.51"/><path d="M800,1884L474,1894L872,2049Z" fill="#d8d8d8" stroke="#d8d8d8" stroke-width="1.51"/><path d="M172,1164L360,1454L469,1059Z" fill="#e3e3e3" stroke="#e3e3e3" stroke-width="1.51"/><path d="M1831,260L1610,3L1671,316Z" fill="#e6e6e6" stroke="#e6e6e6" stroke-width="1.51"/><path d="M2039,-68L1610,3L1831,260Z" fill="#e1e1e1" stroke="#e1e1e1" stroke-width="1.51"/><path d="M1054,2050L1308,2316L1330,1925Z" fill="#e0e0e0" stroke="#e0e0e0" stroke-width="1.51"/><path d="M872,2049L951,2207L1054,2050Z" fill="#dbdbdb" stroke="#dbdbdb" stroke-width="1.51"/><path d="M799,2335L951,2207L872,2049Z" fill="#d8d8d8" stroke="#d8d8d8" stroke-width="1.51"/><path d="M951,2207L1308,2316L1054,2050Z" fill="#dddddd" stroke="#dddddd" stroke-width="1.51"/><path d="M360,1454L474,1894L775,1484Z" fill="#dbdbdb" stroke="#dbdbdb" stroke-width="1.51"/><path d="M2239,537L2377,324L1831,260Z" fill="#e1e1e1" stroke="#e1e1e1" stroke-width="1.51"/><path d="M2508,390L2239,537L2585,449Z" fill="#dddddd" stroke="#dddddd" stroke-width="1.51"/><path d="M211,1817L417,1963L474,1894Z" fill="#d3d3d3" stroke="#d3d3d3" stroke-width="1.51"/><path d="M0,950L469,1059L525,802Z" fill="#e8e8e8" stroke="#e8e8e8" stroke-width="1.51"/><path d="M0,950L525,802L60,481Z" fill="#e1e1e1" stroke="#e1e1e1" stroke-width="1.51"/><path d="M2717,1675L2678,1407L2263,1711Z" fill="#dadada" stroke="#dadada" stroke-width="1.51"/><path d="M2585,449L2239,537L2447,961Z" fill="#e3e3e3" stroke="#e3e3e3" stroke-width="1.51"/><path d="M1086,138L565,-10L646,334Z" fill="#dbdbdb" stroke="#dbdbdb" stroke-width="1.51"/><path d="M1344,66L1074,-94L1086,138Z" fill="#e1e1e1" stroke="#e1e1e1" stroke-width="1.51"/><path d="M1490,-228L1074,-94L1344,66Z" fill="#e2e2e2" stroke="#e2e2e2" stroke-width="1.51"/><path d="M646,334L415,364L660,563Z" fill="#dddddd" stroke="#dddddd" stroke-width="1.51"/><path d="M565,-10L415,364L646,334Z" fill="#d7d7d7" stroke="#d7d7d7" stroke-width="1.51"/><path d="M2193,1903L2533,1826L2263,1711Z" fill="#d9d9d9" stroke="#d9d9d9" stroke-width="1.51"/><path d="M2592,2156L2533,1826L2193,1903Z" fill="#d5d5d5" stroke="#d5d5d5" stroke-width="1.51"/><path d="M2388,2464L2193,1903L1939,2043Z" fill="#d8d8d8" stroke="#d8d8d8" stroke-width="1.51"/><path d="M2585,449L2447,961L2802,520Z" fill="#e0e0e0" stroke="#e0e0e0" stroke-width="1.51"/><path d="M474,1894L417,1963L872,2049Z" fill="#d5d5d5" stroke="#d5d5d5" stroke-width="1.51"/><path d="M211,1817L474,1894L360,1454Z" fill="#d6d6d6" stroke="#d6d6d6" stroke-width="1.51"/><path d="M2802,520L2447,961L2527,1019Z" fill="#e5e5e5" stroke="#e5e5e5" stroke-width="1.51"/><path d="M2346,-165L2377,324L2598,-97Z" fill="#d5d5d5" stroke="#d5d5d5" stroke-width="1.51"/><path d="M2346,-165L2039,-68L2377,324Z" fill="#d8d8d8" stroke="#d8d8d8" stroke-width="1.51"/><path d="M2377,324L2039,-68L1831,260Z" fill="#dedede" stroke="#dedede" stroke-width="1.51"/><path d="M1610,3L1490,-228L1344,66Z" fill="#e6e6e6" stroke="#e6e6e6" stroke-width="1.51"/><path d="M1667,-450L1490,-228L1610,3Z" fill="#e2e2e2" stroke="#e2e2e2" stroke-width="1.51"/><path d="M417,1963L799,2335L872,2049Z" fill="#d6d6d6" stroke="#d6d6d6" stroke-width="1.51"/><path d="M951,2207L799,2335L1308,2316Z" fill="#dadada" stroke="#dadada" stroke-width="1.51"/><path d="M1703,2482L1900,2425L1711,2004Z" fill="#dedede" stroke="#dedede" stroke-width="1.51"/><path d="M1703,2482L1711,2004L1308,2316Z" fill="#e2e2e2" stroke="#e2e2e2" stroke-width="1.51"/><path d="M799,2335L1703,2482L1308,2316Z" fill="#dedede" stroke="#dedede" stroke-width="1.51"/><path d="M2678,1407L2827,1074L2527,1019Z" fill="#e5e5e5" stroke="#e5e5e5" stroke-width="1.51"/><path d="M2978,960L2827,1074L3004,997Z" fill="#e6e6e6" stroke="#e6e6e6" stroke-width="1.51"/><path d="M2533,1826L2717,1675L2263,1711Z" fill="#d7d7d7" stroke="#d7d7d7" stroke-width="1.51"/><path d="M2945,2105L2717,1675L2533,1826Z" fill="#d3d3d3" stroke="#d3d3d3" stroke-width="1.51"/><path d="M51,1561L211,1817L360,1454Z" fill="#d8d8d8" stroke="#d8d8d8" stroke-width="1.51"/><path d="M417,1963L487,2464L799,2335Z" fill="#d2d2d2" stroke="#d2d2d2" stroke-width="1.51"/><path d="M1074,-94L864,-170L1086,138Z" fill="#dddddd" stroke="#dddddd" stroke-width="1.51"/><path d="M973,-216L864,-170L1074,-94Z" fill="#dbdbdb" stroke="#dbdbdb" stroke-width="1.51"/><path d="M1490,-228L973,-216L1074,-94Z" fill="#dedede" stroke="#dedede" stroke-width="1.51"/><path d="M864,-170L565,-10L1086,138Z" fill="#dadada" stroke="#dadada" stroke-width="1.51"/><path d="M60,481L539,615L415,364Z" fill="#dbdbdb" stroke="#dbdbdb" stroke-width="1.51"/><path d="M60,481L525,802L539,615Z" fill="#e0e0e0" stroke="#e0e0e0" stroke-width="1.51"/><path d="M172,1164L51,1561L360,1454Z" fill="#dddddd" stroke="#dddddd" stroke-width="1.51"/><path d="M-195,1152L51,1561L172,1164Z" fill="#dedede" stroke="#dedede" stroke-width="1.51"/><path d="M565,-10L281,232L415,364Z" fill="#d5d5d5" stroke="#d5d5d5" stroke-width="1.51"/><path d="M2827,1074L2802,520L2527,1019Z" fill="#e5e5e5" stroke="#e5e5e5" stroke-width="1.51"/><path d="M2585,449L2747,94L2508,390Z" fill="#d7d7d7" stroke="#d7d7d7" stroke-width="1.51"/><path d="M281,232L60,481L415,364Z" fill="#d7d7d7" stroke="#d7d7d7" stroke-width="1.51"/><path d="M2388,2464L2592,2156L2193,1903Z" fill="#d3d3d3" stroke="#d3d3d3" stroke-width="1.51"/><path d="M2827,1074L2978,960L2802,520Z" fill="#e3e3e3" stroke="#e3e3e3" stroke-width="1.51"/><path d="M3004,997L2827,1074L3193,1169Z" fill="#e4e4e4" stroke="#e4e4e4" stroke-width="1.51"/><path d="M2827,1074L2678,1407L2987,1569Z" fill="#dedede" stroke="#dedede" stroke-width="1.51"/><path d="M3070,612L2895,257L2802,520Z" fill="#d8d8d8" stroke="#d8d8d8" stroke-width="1.51"/><path d="M2987,1569L2678,1407L2717,1675Z" fill="#d9d9d9" stroke="#d9d9d9" stroke-width="1.51"/><path d="M1864,-442L1667,-450L1610,3Z" fill="#dfdfdf" stroke="#dfdfdf" stroke-width="1.51"/><path d="M2747,94L2377,324L2508,390Z" fill="#d6d6d6" stroke="#d6d6d6" stroke-width="1.51"/><path d="M211,1817L121,2017L417,1963Z" fill="#d1d1d1" stroke="#d1d1d1" stroke-width="1.51"/><path d="M-155,2021L121,2017L211,1817Z" fill="#d0d0d0" stroke="#d0d0d0" stroke-width="1.51"/><path d="M281,232L-149,274L60,481Z" fill="#d4d4d4" stroke="#d4d4d4" stroke-width="1.51"/><path d="M565,-10L239,86L281,232Z" fill="#d3d3d3" stroke="#d3d3d3" stroke-width="1.51"/><path d="M321,-232L239,86L565,-10Z" fill="#d1d1d1" stroke="#d1d1d1" stroke-width="1.51"/><path d="M826,-475L565,-10L864,-170Z" fill="#d6d6d6" stroke="#d6d6d6" stroke-width="1.51"/><path d="M1490,-228L826,-475L973,-216Z" fill="#dbdbdb" stroke="#dbdbdb" stroke-width="1.51"/><path d="M1864,-442L1610,3L2039,-68Z" fill="#dedede" stroke="#dedede" stroke-width="1.51"/><path d="M3137,1742L2987,1569L2717,1675Z" fill="#d5d5d5" stroke="#d5d5d5" stroke-width="1.51"/><path d="M2211,-347L1864,-442L2039,-68Z" fill="#d9d9d9" stroke="#d9d9d9" stroke-width="1.51"/><path d="M51,1561L-123,1619L211,1817Z" fill="#d5d5d5" stroke="#d5d5d5" stroke-width="1.51"/><path d="M0,950L-195,1152L172,1164Z" fill="#e4e4e4" stroke="#e4e4e4" stroke-width="1.51"/><path d="M-334,824L-195,1152L0,950Z" fill="#e4e4e4" stroke="#e4e4e4" stroke-width="1.51"/><path d="M2592,2156L2945,2105L2533,1826Z" fill="#d1d1d1" stroke="#d1d1d1" stroke-width="1.51"/><path d="M1900,2425L2388,2464L1939,2043Z" fill="#d8d8d8" stroke="#d8d8d8" stroke-width="1.51"/><path d="M1703,2482L2388,2464L1900,2425Z" fill="#d7d7d7" stroke="#d7d7d7" stroke-width="1.51"/><path d="M-312,1399L-123,1619L51,1561Z" fill="#d7d7d7" stroke="#d7d7d7" stroke-width="1.51"/><path d="M165,2306L487,2464L417,1963Z" fill="#cecece" stroke="#cecece" stroke-width="1.51"/><path d="M799,2335L487,2464L1703,2482Z" fill="#d8d8d8" stroke="#d8d8d8" stroke-width="1.51"/><path d="M60,481L-153,712L0,950Z" fill="#dedede" stroke="#dedede" stroke-width="1.51"/><path d="M-245,499L-153,712L60,481Z" fill="#d9d9d9" stroke="#d9d9d9" stroke-width="1.51"/><path d="M2346,-165L2211,-347L2039,-68Z" fill="#d7d7d7" stroke="#d7d7d7" stroke-width="1.51"/><path d="M2388,2464L2634,2291L2592,2156Z" fill="#cfcfcf" stroke="#cfcfcf" stroke-width="1.51"/><path d="M2346,-165L2634,-211L2211,-347Z" fill="#d3d3d3" stroke="#d3d3d3" stroke-width="1.51"/><path d="M2895,257L2747,94L2585,449Z" fill="#d4d4d4" stroke="#d4d4d4" stroke-width="1.51"/><path d="M2895,257L2585,449L2802,520Z" fill="#d8d8d8" stroke="#d8d8d8" stroke-width="1.51"/><path d="M2747,94L2598,-97L2377,324Z" fill="#d4d4d4" stroke="#d4d4d4" stroke-width="1.51"/><path d="M2747,94L2634,-211L2598,-97Z" fill="#d1d1d1" stroke="#d1d1d1" stroke-width="1.51"/><path d="M3070,612L2802,520L2978,960Z" fill="#dedede" stroke="#dedede" stroke-width="1.51"/><path d="M3004,997L3070,612L2978,960Z" fill="#e2e2e2" stroke="#e2e2e2" stroke-width="1.51"/><path d="M3507,793L3070,612L3004,997Z" fill="#dfdfdf" stroke="#dfdfdf" stroke-width="1.51"/><path d="M973,-216L826,-475L864,-170Z" fill="#d7d7d7" stroke="#d7d7d7" stroke-width="1.51"/><path d="M1667,-450L826,-475L1490,-228Z" fill="#dfdfdf" stroke="#dfdfdf" stroke-width="1.51"/><path d="M121,2017L165,2306L417,1963Z" fill="#cfcfcf" stroke="#cfcfcf" stroke-width="1.51"/><path d="M-155,2021L165,2306L121,2017Z" fill="#cecece" stroke="#cecece" stroke-width="1.51"/><path d="M-123,1619L-155,2021L211,1817Z" fill="#d0d0d0" stroke="#d0d0d0" stroke-width="1.51"/><path d="M-312,1399L-247,1582L-123,1619Z" fill="#d6d6d6" stroke="#d6d6d6" stroke-width="1.51"/><path d="M-312,1399L51,1561L-195,1152Z" fill="#dbdbdb" stroke="#dbdbdb" stroke-width="1.51"/><path d="M2987,1569L3193,1169L2827,1074Z" fill="#dfdfdf" stroke="#dfdfdf" stroke-width="1.51"/><path d="M3148,1528L3193,1169L2987,1569Z" fill="#dadada" stroke="#dadada" stroke-width="1.51"/><path d="M3137,1742L3148,1528L2987,1569Z" fill="#d4d4d4" stroke="#d4d4d4" stroke-width="1.51"/><path d="M-149,274L-245,499L60,481Z" fill="#d5d5d5" stroke="#d5d5d5" stroke-width="1.51"/><path d="M826,-475L321,-232L565,-10Z" fill="#d2d2d2" stroke="#d2d2d2" stroke-width="1.51"/><path d="M-555,1250L-312,1399L-195,1152Z" fill="#dbdbdb" stroke="#dbdbdb" stroke-width="1.51"/><path d="M2634,2291L2945,2105L2592,2156Z" fill="#cfcfcf" stroke="#cfcfcf" stroke-width="1.51"/><path d="M2753,2369L2945,2105L2634,2291Z" fill="#cdcdcd" stroke="#cdcdcd" stroke-width="1.51"/><path d="M2817,-492L2634,-211L3179,-123Z" fill="#cccccc" stroke="#cccccc" stroke-width="1.51"/><path d="M2598,-97L2634,-211L2346,-165Z" fill="#d1d1d1" stroke="#d1d1d1" stroke-width="1.51"/><path d="M-153,712L-334,824L0,950Z" fill="#e0e0e0" stroke="#e0e0e0" stroke-width="1.51"/><path d="M-149,274L281,232L239,86Z" fill="#d2d2d2" stroke="#d2d2d2" stroke-width="1.51"/><path d="M-453,587L-334,824L-153,712Z" fill="#dbdbdb" stroke="#dbdbdb" stroke-width="1.51"/><path d="M-45,-185L-149,274L239,86Z" fill="#cfcfcf" stroke="#cfcfcf" stroke-width="1.51"/><path d="M3148,1528L3416,1192L3193,1169Z" fill="#dcdcdc" stroke="#dcdcdc" stroke-width="1.51"/><path d="M2945,2105L3137,1742L2717,1675Z" fill="#d1d1d1" stroke="#d1d1d1" stroke-width="1.51"/><path d="M2388,2464L2753,2369L2634,2291Z" fill="#cdcdcd" stroke="#cdcdcd" stroke-width="1.51"/><path d="M-317,1947L-123,1619L-247,1582Z" fill="#d1d1d1" stroke="#d1d1d1" stroke-width="1.51"/><path d="M-317,1947L-155,2021L-123,1619Z" fill="#cecece" stroke="#cecece" stroke-width="1.51"/><path d="M-495,1865L-317,1947L-247,1582Z" fill="#cecece" stroke="#cecece" stroke-width="1.51"/><path d="M-155,2021L-70,2418L165,2306Z" fill="#cbcbcb" stroke="#cbcbcb" stroke-width="1.51"/><path d="M-495,1865L-247,1582L-312,1399Z" fill="#d2d2d2" stroke="#d2d2d2" stroke-width="1.51"/><path d="M-334,824L-555,1250L-195,1152Z" fill="#e1e1e1" stroke="#e1e1e1" stroke-width="1.51"/><path d="M-245,499L-453,587L-153,712Z" fill="#d9d9d9" stroke="#d9d9d9" stroke-width="1.51"/><path d="M-474,200L-453,587L-245,499Z" fill="#d3d3d3" stroke="#d3d3d3" stroke-width="1.51"/><path d="M-474,200L-245,499L-149,274Z" fill="#d1d1d1" stroke="#d1d1d1" stroke-width="1.51"/><path d="M3465,1509L3416,1192L3148,1528Z" fill="#d8d8d8" stroke="#d8d8d8" stroke-width="1.51"/><path d="M3193,1169L3507,793L3004,997Z" fill="#e4e4e4" stroke="#e4e4e4" stroke-width="1.51"/><path d="M3070,612L3207,180L2895,257Z" fill="#d4d4d4" stroke="#d4d4d4" stroke-width="1.51"/><path d="M321,-232L-45,-185L239,86Z" fill="#cfcfcf" stroke="#cfcfcf" stroke-width="1.51"/><path d="M-38,-289L-45,-185L321,-232Z" fill="#cccccc" stroke="#cccccc" stroke-width="1.51"/><path d="M-516,2271L-70,2418L-155,2021Z" fill="#c9c9c9" stroke="#c9c9c9" stroke-width="1.51"/><path d="M165,2306L-70,2418L487,2464Z" fill="#cbcbcb" stroke="#cbcbcb" stroke-width="1.51"/><path d="M-453,587L-555,1250L-334,824Z" fill="#dfdfdf" stroke="#dfdfdf" stroke-width="1.51"/><path d="M3291,2237L3216,2047L2945,2105Z" fill="#cbcbcb" stroke="#cbcbcb" stroke-width="1.51"/><path d="M2945,2105L3216,2047L3137,1742Z" fill="#cecece" stroke="#cecece" stroke-width="1.51"/><path d="M3137,1742L3465,1509L3148,1528Z" fill="#d3d3d3" stroke="#d3d3d3" stroke-width="1.51"/><path d="M2895,257L3179,-123L2747,94Z" fill="#d0d0d0" stroke="#d0d0d0" stroke-width="1.51"/><path d="M3591,478L3207,180L3070,612Z" fill="#d4d4d4" stroke="#d4d4d4" stroke-width="1.51"/><path d="M-45,-185L-474,200L-149,274Z" fill="#cecece" stroke="#cecece" stroke-width="1.51"/><path d="M65,-477L-38,-289L321,-232Z" fill="#cbcbcb" stroke="#cbcbcb" stroke-width="1.51"/><path d="M3532,1866L3465,1509L3137,1742Z" fill="#cfcfcf" stroke="#cfcfcf" stroke-width="1.51"/><path d="M-555,1250L-495,1865L-312,1399Z" fill="#d4d4d4" stroke="#d4d4d4" stroke-width="1.51"/><path d="M-317,1947L-516,2271L-155,2021Z" fill="#cbcbcb" stroke="#cbcbcb" stroke-width="1.51"/><path d="M3465,1509L3507,793L3416,1192Z" fill="#dddddd" stroke="#dddddd" stroke-width="1.51"/><path d="M3416,1192L3507,793L3193,1169Z" fill="#e1e1e1" stroke="#e1e1e1" stroke-width="1.51"/><path d="M3291,2237L3331,2072L3216,2047Z" fill="#cbcbcb" stroke="#cbcbcb" stroke-width="1.51"/><path d="M3216,2047L3331,2072L3137,1742Z" fill="#cdcdcd" stroke="#cdcdcd" stroke-width="1.51"/><path d="M826,-475L65,-477L321,-232Z" fill="#cdcdcd" stroke="#cdcdcd" stroke-width="1.51"/><path d="M3179,-123L2634,-211L2747,94Z" fill="#cfcfcf" stroke="#cfcfcf" stroke-width="1.51"/><path d="M2634,-211L2817,-492L2211,-347Z" fill="#cecece" stroke="#cecece" stroke-width="1.51"/><path d="M2211,-347L2817,-492L1864,-442Z" fill="#d2d2d2" stroke="#d2d2d2" stroke-width="1.51"/><path d="M1864,-442L2817,-492L1667,-450Z" fill="#d5d5d5" stroke="#d5d5d5" stroke-width="1.51"/><path d="M1667,-450L2817,-492L826,-475Z" fill="#dcdcdc" stroke="#dcdcdc" stroke-width="1.51"/><path d="M826,-475L2817,-492L65,-477Z" fill="#dcdcdc" stroke="#dcdcdc" stroke-width="1.51"/><path d="M-453,587L-573,-194L-555,1250Z" fill="#d5d5d5" stroke="#d5d5d5" stroke-width="1.51"/><path d="M-573,-194L-474,200L-45,-185Z" fill="#cacaca" stroke="#cacaca" stroke-width="1.51"/><path d="M-573,-194L-45,-185L-521,-365Z" fill="#c8c8c8" stroke="#c8c8c8" stroke-width="1.51"/><path d="M3207,180L3179,-123L2895,257Z" fill="#cfcfcf" stroke="#cfcfcf" stroke-width="1.51"/><path d="M3344,83L3179,-123L3207,180Z" fill="#cdcdcd" stroke="#cdcdcd" stroke-width="1.51"/><path d="M2753,2369L3291,2237L2945,2105Z" fill="#cccccc" stroke="#cccccc" stroke-width="1.51"/><path d="M3592,2417L3291,2237L2753,2369Z" fill="#c8c8c8" stroke="#c8c8c8" stroke-width="1.51"/><path d="M3586,278L3344,83L3207,180Z" fill="#cdcdcd" stroke="#cdcdcd" stroke-width="1.51"/><path d="M3331,2072L3532,1866L3137,1742Z" fill="#cdcdcd" stroke="#cdcdcd" stroke-width="1.51"/><path d="M3465,1509L3532,1866L3507,793Z" fill="#d7d7d7" stroke="#d7d7d7" stroke-width="1.51"/><path d="M3592,2417L3532,1866L3331,2072Z" fill="#c9c9c9" stroke="#c9c9c9" stroke-width="1.51"/><path d="M3507,793L3591,478L3070,612Z" fill="#d8d8d8" stroke="#d8d8d8" stroke-width="1.51"/><path d="M3532,1866L3591,478L3507,793Z" fill="#e0e0e0" stroke="#e0e0e0" stroke-width="1.51"/><path d="M-555,1250L-516,2271L-495,1865Z" fill="#cccccc" stroke="#cccccc" stroke-width="1.51"/><path d="M-495,1865L-516,2271L-317,1947Z" fill="#cacaca" stroke="#cacaca" stroke-width="1.51"/><path d="M3591,478L3586,278L3207,180Z" fill="#cfcfcf" stroke="#cfcfcf" stroke-width="1.51"/><path d="M3564,-326L3201,-486L3179,-123Z" fill="#c8c8c8" stroke="#c8c8c8" stroke-width="1.51"/><path d="M3179,-123L3201,-486L2817,-492Z" fill="#c9c9c9" stroke="#c9c9c9" stroke-width="1.51"/><path d="M3564,-326L3179,-123L3344,83Z" fill="#cacaca" stroke="#cacaca" stroke-width="1.51"/><path d="M-521,-365L-45,-185L-38,-289Z" fill="#c9c9c9" stroke="#c9c9c9" stroke-width="1.51"/><path d="M-474,200L-573,-194L-453,587Z" fill="#cdcdcd" stroke="#cdcdcd" stroke-width="1.51"/><path d="M65,-477L-521,-365L-38,-289Z" fill="#c8c8c8" stroke="#c8c8c8" stroke-width="1.51"/><path d="M3291,2237L3592,2417L3331,2072Z" fill="#c8c8c8" stroke="#c8c8c8" stroke-width="1.51"/><path d="M3532,1866L3592,2417L3591,478Z" fill="#d1d1d1" stroke="#d1d1d1" stroke-width="1.51"/><path d="M2388,2464L3592,2417L2753,2369Z" fill="#cacaca" stroke="#cacaca" stroke-width="1.51"/><path d="M3586,278L3564,-326L3344,83Z" fill="#cacaca" stroke="#cacaca" stroke-width="1.51"/></svg>